<svg width="123" height="123" viewBox="0 0 123 123" fill="none" xmlns="http://www.w3.org/2000/svg">
<path d="M5.76572 119.156H109.547C112.095 119.153 114.537 118.14 116.339 116.339C118.14 114.537 119.153 112.095 119.156 109.547V101.859H115.313V109.547C115.311 111.075 114.703 112.541 113.622 113.622C112.541 114.703 111.076 115.311 109.547 115.312H86.4845V107.625H105.703C105.961 107.625 106.217 107.573 106.454 107.472C106.692 107.371 106.907 107.224 107.086 107.038C112.806 101.114 112.907 91.5464 107.398 85.4891L102.83 71.7876C102.941 71.5653 103.048 71.34 103.15 71.1094H107.625C109.663 71.1117 111.617 71.9223 113.058 73.3635C114.5 74.8047 115.31 76.7587 115.313 78.7969V98.0156H119.156V78.7969C119.153 75.7397 117.937 72.8087 115.775 70.6469C113.613 68.4851 110.682 67.2691 107.625 67.2656H107.427C107.46 67.2332 107.495 67.2024 107.528 67.1695C108.781 65.9235 109.775 64.441 110.452 62.808C111.128 61.1749 111.474 59.4239 111.469 57.6562V42.1777C112.701 40.923 113.391 39.2349 113.391 37.4766C113.391 35.7182 112.701 34.0302 111.469 32.7754V26.9062C111.469 20.7897 109.039 14.9237 104.714 10.5986C100.389 6.27354 94.5229 3.84375 88.4063 3.84375C82.2898 3.84375 76.4237 6.27354 72.0987 10.5986C67.7736 14.9237 65.3438 20.7897 65.3438 26.9062V57.6562C65.3431 59.4473 65.7012 61.2204 66.3969 62.8708C67.0926 64.5213 68.1119 66.0156 69.3947 67.2656H69.1876C66.1304 67.2691 63.1994 68.4851 61.0376 70.6469C58.8759 72.8087 57.6598 75.7397 57.6563 78.7969V82.6406H61.5001V78.7969C61.5024 76.7587 62.313 74.8047 63.7542 73.3635C65.1954 71.9223 67.1494 71.1117 69.1876 71.1094H73.6619C73.8352 71.5017 74.0245 71.8832 74.2248 72.2541L71.2683 85.559C69.8153 87.1917 68.7162 89.1077 68.0404 91.1863C67.3646 93.2648 67.1267 95.4608 67.3416 97.6358L57.222 85.2673C57.0417 85.047 56.8148 84.8695 56.5575 84.7476C56.3003 84.6257 56.0191 84.5625 55.7345 84.5625H30.7501V74.9531H40.3595C40.8692 74.9531 41.358 74.7506 41.7184 74.3902C42.0789 74.0298 42.2813 73.541 42.2813 73.0312V57.6562C42.2813 57.1465 42.0789 56.6577 41.7184 56.2973C41.358 55.9369 40.8692 55.7344 40.3595 55.7344H9.60947C9.09976 55.7344 8.61092 55.9369 8.2505 56.2973C7.89008 56.6577 7.68759 57.1465 7.68759 57.6562V73.0312C7.68759 73.541 7.89008 74.0298 8.2505 74.3902C8.61092 74.7506 9.09976 74.9531 9.60947 74.9531H19.2188V84.5625H5.76572C5.25601 84.5625 4.76717 84.765 4.40675 85.1254C4.04633 85.4858 3.84384 85.9747 3.84384 86.4844V117.234C3.84384 117.744 4.04633 118.233 4.40675 118.593C4.76717 118.954 5.25601 119.156 5.76572 119.156ZM103.037 84.5625H75.4272L77.2753 76.2456C78.8051 77.714 80.6104 78.8653 82.587 79.6331C84.5636 80.4009 86.6726 80.7701 88.7925 80.7195C90.9124 80.6689 93.0014 80.1993 94.9391 79.338C96.8768 78.4767 98.625 77.2405 100.083 75.7007L103.037 84.5625ZM80.7188 32.84V29.8172L92.0423 21.729L103.781 33.4678V42.2812C103.781 44.9801 103.071 47.6315 101.722 49.9688C100.372 52.3061 98.4312 54.247 96.0939 55.5965C93.7566 56.9459 91.1052 57.6563 88.4064 57.6563C85.7075 57.6563 83.0561 56.9459 80.7188 55.5965V38.2693C81.2807 38.0714 81.7673 37.7039 82.1115 37.2177C82.4557 36.7315 82.6405 36.1504 82.6405 35.5547C82.6405 34.959 82.4557 34.3779 82.1115 33.8917C81.7673 33.4055 81.2807 33.038 80.7188 32.84ZM82.6407 65.3438V60.6169C86.3943 61.7949 90.4187 61.7944 94.172 60.6152V65.3438C94.1718 66.6206 94.5959 67.8613 95.3774 68.8711C96.159 69.8808 97.2538 70.6023 98.4899 70.9222L98.6396 71.371C97.5335 73.0453 96.0334 74.4226 94.271 75.3821C92.5085 76.3416 90.5376 76.854 88.531 76.8744C86.5244 76.8947 84.5435 76.4224 82.762 75.4988C80.9804 74.5752 79.4527 73.2286 78.3129 71.5771L78.4188 71.0998C79.5578 71.0998 82.6407 69.5479 82.6407 65.3438ZM107.625 57.6562C107.625 59.9747 106.787 62.215 105.265 63.9638C103.743 65.7127 101.64 66.8521 99.3432 67.1719C98.9571 67.0467 98.6206 66.8023 98.3821 66.4738C98.1436 66.1453 98.0153 65.7497 98.0157 65.3438V58.9144C100.661 57.3849 102.903 55.2476 104.558 52.6793C106.214 50.1111 107.233 47.1856 107.533 44.145C107.564 44.1411 107.595 44.1378 107.625 44.1335V57.6562ZM109.547 37.4766C109.546 38.0726 109.361 38.6537 109.017 39.1404C108.673 39.627 108.187 39.9952 107.625 40.1946V34.7586C108.187 34.9579 108.673 35.3261 109.017 35.8128C109.361 36.2994 109.546 36.8806 109.547 37.4766ZM69.1876 57.6562V26.9062C69.1876 21.8091 71.2124 16.9208 74.8166 13.3165C78.4208 9.71233 83.3092 7.6875 88.4063 7.6875C93.5035 7.6875 98.3918 9.71233 101.996 13.3165C105.6 16.9208 107.625 21.8091 107.625 26.9062V30.8197C107.307 30.7736 106.986 30.7503 106.664 30.75H106.499L93.6091 17.8597C93.2874 17.538 92.862 17.3409 92.4086 17.3034C91.9552 17.2658 91.5032 17.3904 91.133 17.6548L77.6799 27.2642C77.4309 27.442 77.2281 27.6767 77.0881 27.9487C76.9481 28.2207 76.8751 28.5222 76.8751 28.8281V67.0734C74.7061 66.6274 72.7571 65.4472 71.3568 63.7318C69.9564 62.0164 69.1903 59.8707 69.1876 57.6562ZM73.8847 88.4062H104.851C106.644 90.5666 107.626 93.286 107.626 96.0938C107.626 98.9015 106.644 101.621 104.851 103.781H85.203L78.0282 98.4C77.6955 98.1505 77.2909 98.0156 76.8751 98.0156H71.263C70.9865 96.3196 71.0776 94.584 71.5298 92.9261C71.9821 91.2683 72.7852 89.7269 73.8847 88.4062ZM76.2344 101.859L82.6407 106.664V115.312H80.9543C79.8283 115.316 78.714 115.086 77.6812 114.637C76.6484 114.189 75.7197 113.531 74.9532 112.706V107.625C74.9532 107.181 74.7998 106.751 74.5189 106.408L70.7972 101.859H76.2344ZM49.9688 88.4062H54.8237L71.1095 108.311V115.312H49.9688V88.4062ZM11.5313 71.1094V59.5781H38.4376V71.1094H11.5313ZM26.9063 74.9531V84.5625H23.0626V74.9531H26.9063ZM7.68759 88.4062H46.1251V115.312H7.68759V88.4062ZM94.172 35.5547C94.172 34.9845 94.341 34.4272 94.6578 33.9531C94.9746 33.479 95.4248 33.1095 95.9516 32.8913C96.4783 32.6731 97.058 32.616 97.6172 32.7273C98.1764 32.8385 98.6901 33.1131 99.0932 33.5162C99.4964 33.9194 99.771 34.4331 99.8822 34.9923C99.9934 35.5515 99.9363 36.1311 99.7181 36.6579C99.4999 37.1847 99.1305 37.6349 98.6564 37.9517C98.1823 38.2684 97.6249 38.4375 97.0548 38.4375C96.2905 38.4367 95.5577 38.1327 95.0172 37.5922C94.4768 37.0518 94.1728 36.319 94.172 35.5547ZM82.6407 44.2031H86.4845C86.4845 44.7128 86.6869 45.2017 87.0474 45.5621C87.4078 45.9225 87.8966 46.125 88.4063 46.125C88.916 46.125 89.4049 45.9225 89.7653 45.5621C90.1257 45.2017 90.3282 44.7128 90.3282 44.2031H94.172C94.172 45.7323 93.5645 47.1988 92.4832 48.28C91.402 49.3613 89.9355 49.9688 88.4063 49.9688C86.8772 49.9688 85.4107 49.3613 84.3294 48.28C83.2482 47.1988 82.6407 45.7323 82.6407 44.2031ZM76.9825 22.9006L73.5611 21.149C73.7585 20.7613 78.5284 11.6511 89.934 11.2122L90.0817 15.0533C80.9807 15.4033 77.1415 22.5948 76.9825 22.9006ZM21.1407 28.8281V29.3213C21.1412 29.7001 21.2918 30.0632 21.5597 30.3311C21.8275 30.5989 22.1906 30.7496 22.5694 30.75H27.3995C27.7388 30.7501 28.067 30.6294 28.3255 30.4095C28.5839 30.1897 28.7556 29.8851 28.81 29.5502C28.8643 29.2153 28.7977 28.872 28.6221 28.5818C28.4465 28.2915 28.1733 28.0732 27.8514 27.9659L20.9022 25.6493C19.7144 25.2535 18.7063 24.4479 18.0582 23.3767C17.4102 22.3055 17.1644 21.0387 17.3649 19.8029C17.5655 18.5671 18.1992 17.443 19.1528 16.6317C20.1063 15.8205 21.3174 15.375 22.5694 15.375H23.0626V11.5312H26.9063V15.375H27.3995C28.7974 15.3767 30.1375 15.9327 31.1259 16.9211C32.1143 17.9095 32.6703 19.2496 32.672 20.6474V21.1406H28.8282V20.6474C28.8278 20.2687 28.6771 19.9055 28.4093 19.6377C28.1414 19.3699 27.7783 19.2192 27.3995 19.2188H22.5694C22.2301 19.2187 21.9019 19.3394 21.6435 19.5592C21.3851 19.779 21.2133 20.0836 21.1589 20.4185C21.1046 20.7534 21.1712 21.0967 21.3468 21.387C21.5224 21.6773 21.7956 21.8956 22.1175 22.0028L29.0668 24.3194C30.2545 24.7153 31.2626 25.5209 31.9107 26.592C32.5588 27.6632 32.8045 28.93 32.604 30.1658C32.4035 31.4016 31.7697 32.5258 30.8162 33.337C29.8626 34.1483 28.6515 34.5938 27.3995 34.5938H26.9063V38.4375H23.0626V34.5938H22.5694C21.1716 34.5921 19.8315 34.0361 18.8431 33.0477C17.8546 32.0593 17.2986 30.7192 17.297 29.3213V28.8281H21.1407ZM8.60817 38.3522C5.89578 35.029 4.25813 30.9594 3.91256 26.6837C3.56699 22.408 4.52984 18.1283 6.67332 14.4126L10.0003 16.3374C8.63976 18.6973 7.85562 21.3452 7.71171 24.0655C7.5678 26.7858 8.0682 29.5016 9.17217 31.9919C10.2761 34.4823 11.9525 36.6768 14.0648 38.3969C16.1771 40.117 18.6657 41.314 21.3281 41.8906C21.8223 41.9969 22.2547 42.2937 22.5317 42.7166L24.9845 46.4613L27.4373 42.7166C27.7142 42.2937 28.1466 41.9969 28.6408 41.8906C31.3089 41.3135 33.8025 40.113 35.9177 38.3873C38.0329 36.6617 39.7097 34.46 40.8109 31.9621C41.912 29.4642 42.4063 26.7412 42.2534 24.0157C42.1005 21.2902 41.3046 18.6395 39.9309 16.2806C38.5572 13.9216 36.6446 11.9212 34.3496 10.4431C32.0546 8.96495 29.4424 8.05099 26.7265 7.77594C24.0105 7.5009 21.2681 7.87258 18.7233 8.86059C16.1786 9.84861 13.9038 11.4249 12.0851 13.4606L9.21957 10.8987C11.4201 8.4362 14.167 6.52348 17.24 5.31388C20.313 4.10429 23.6267 3.63146 26.9153 3.9333C30.204 4.23514 33.3762 5.30325 36.1777 7.05201C38.9792 8.80077 41.332 11.1815 43.0475 14.0035C44.7631 16.8254 45.7937 20.01 46.0566 23.3021C46.3196 26.5941 45.8077 29.9019 44.5619 32.9604C43.316 36.0189 41.371 38.743 38.8827 40.9143C36.3943 43.0856 33.4319 44.6438 30.2329 45.4639L26.5921 51.0217C26.4173 51.2886 26.1788 51.5077 25.8982 51.6594C25.6175 51.811 25.3035 51.8904 24.9845 51.8904C24.6654 51.8904 24.3514 51.811 24.0708 51.6594C23.7901 51.5077 23.5516 51.2886 23.3768 51.0217L19.7361 45.4639C15.3652 44.3364 11.4673 41.8453 8.60817 38.3522ZM30.7501 63.4219H34.5938V67.2656H30.7501V63.4219ZM23.0626 63.4219H26.9063V67.2656H23.0626V63.4219ZM15.3751 63.4219H19.2188V67.2656H15.3751V63.4219ZM11.5313 92.25H15.3751V96.0938H11.5313V92.25ZM11.5313 99.9375H15.3751V111.469H11.5313V99.9375Z" fill="#0086B8"/>
</svg>
