<svg width="123" height="117" viewBox="0 0 123 117" fill="none" xmlns="http://www.w3.org/2000/svg">
<path d="M115.956 63.3C119.84 63.3 123 60.1376 123 56.2506V40.4421C123 36.5561 119.84 33.3937 115.956 33.3937H108.249C104.365 33.3937 101.205 36.5561 101.205 40.4421V56.2506C101.205 60.1376 104.365 63.3 108.249 63.3H110.287V88.7236H108.784C108.264 88.7236 107.759 88.7893 107.278 88.9122L105.545 81.5738C103.533 73.0408 96.4457 68.4266 84.4809 67.8598C84.4724 67.8588 84.464 67.8588 84.4555 67.8588C83.4918 67.8269 82.6688 67.6533 81.9415 67.308C81.9134 67.2949 81.8861 67.2798 81.857 67.2676C80.9909 66.8378 80.2599 66.1547 79.587 65.1665C79.9736 64.8691 80.3565 64.565 80.7272 64.2478C85.9758 59.7669 88.8651 54.082 88.8651 48.2385V36.5505C88.8923 36.3712 88.8914 36.1939 88.8651 36.0222V24.1052C92.265 21.6128 93.6679 18.0496 92.6263 14.4076C91.3566 9.96799 86.825 6.86746 81.6046 6.86746H76.4837C74.9043 3.22359 71.4697 0.851279 67.0489 0.428054C61.6886 -0.0843211 56.472 2.4738 53.7168 6.86746H48.8248C43.5293 6.86746 38.9311 10.014 37.6427 14.5193C36.6132 18.1219 37.9908 21.6428 41.341 24.1043V45.0422V45.0591V49.1806C41.341 55.3019 45.0702 60.1179 48.1989 63.0786C48.9487 63.7889 49.7426 64.4646 50.5665 65.1027C49.8796 66.1293 49.1326 66.836 48.2411 67.2751C48.2383 67.277 48.2364 67.278 48.2336 67.2789C47.4904 67.6439 46.6477 67.826 45.6558 67.8588C45.6473 67.8588 45.6389 67.8598 45.6305 67.8598C43.794 67.9471 42.0729 68.13 40.4673 68.4078C40.4607 68.4088 40.4542 68.4097 40.4476 68.4116C32.5461 69.7826 27.4421 73.4593 25.2265 79.3826H6.1363C2.75237 79.3826 0 82.1397 0 85.5292C0 88.915 2.75237 91.6702 6.1363 91.6702H10.8547C12.6695 95.8903 15.4773 99.4844 19.063 102.194H17.2978C14.3399 102.194 11.9338 104.602 11.9338 107.561V111.269C11.9338 114.229 14.3399 116.637 17.2978 116.637H27.931C28.9332 116.637 29.7459 115.824 29.7459 114.822C29.7459 113.819 28.9332 113.006 27.931 113.006H17.2978C16.3416 113.006 15.5646 112.227 15.5646 111.269V107.561C15.5646 106.603 16.3425 105.824 17.2978 105.824H55.1094C55.9436 105.824 56.6418 106.417 56.807 107.206C56.8126 107.266 56.822 107.325 56.8342 107.384C56.8408 107.442 56.8436 107.501 56.8436 107.561V111.269C56.8436 112.227 56.0656 113.006 55.1094 113.006H36.2003C35.1981 113.006 34.3854 113.819 34.3854 114.822C34.3854 115.824 35.1981 116.637 36.2003 116.637H55.1094C58.0682 116.637 60.4743 114.229 60.4743 111.269V108.827H102.709C102.861 112.054 105.527 114.63 108.783 114.63H112.102C117.286 114.63 121.503 110.41 121.503 105.223V98.1312C121.503 93.5658 118.236 89.7502 113.917 88.9019V63.3H115.956ZM102.011 82.408L104.04 91.0067C103.204 92.0493 102.702 93.3715 102.702 94.8101V105.197H97.5389L94.5707 88.0085C94.2038 85.8201 92.9472 84.1713 91.2496 83.4863V72.4496C97.2593 73.9886 100.802 77.2787 102.011 82.408ZM87.6189 71.772V83.1381H82.9663V71.361C83.3951 71.4276 83.8456 71.4708 84.3213 71.4868C85.4784 71.5421 86.5754 71.6388 87.6189 71.772ZM70.5764 83.1381C69.6417 80.9328 67.4571 79.3826 64.9168 79.3826H50.9175V73.8497C54.3802 76.3768 59.4036 77.5058 63.8057 77.6747C64.1904 77.6897 64.5827 77.6972 64.9806 77.6972C69.7712 77.6972 75.4355 76.5974 79.3355 73.692V83.1381H70.5764ZM61.8134 86.66C62.1118 85.3096 62.1513 84.0718 61.9411 83.0124H64.9168C66.3019 83.0124 67.4289 84.1413 67.4289 85.5292C67.4289 86.9134 66.3019 88.0385 64.9168 88.0385H61.4672C61.5938 87.5834 61.7102 87.1245 61.8134 86.66ZM85.2344 37.7385V42.6314C83.4111 41.8413 81.066 40.1868 80.715 36.8592C82.224 37.1154 83.7311 37.4091 85.2344 37.7385ZM49.4141 36.8611C49.0641 40.1146 46.7988 41.7728 44.9717 42.5883V37.7348C46.4497 37.4073 47.9314 37.1163 49.4141 36.8611ZM44.9717 49.1806V46.4583C46.0968 46.0914 47.633 45.441 49.0707 44.3309C50.9278 42.8989 53.0055 40.3877 53.0946 36.3018C55.8292 35.9415 58.5609 35.7031 61.272 35.5924C62.2742 35.552 63.0531 34.7065 63.0127 33.7052C62.9714 32.703 62.1212 31.9278 61.1246 31.9644C57.7867 32.1005 54.4206 32.4215 51.0545 32.9207C51.0395 32.9216 51.0245 32.9216 51.0095 32.9235C50.9447 32.931 50.8818 32.9413 50.819 32.9545C48.868 33.2491 46.917 33.6039 44.9707 34.0186V23.1424C44.9707 22.5155 44.6479 21.9328 44.1149 21.6015C41.5315 19.9921 40.472 17.8319 41.1345 15.5168C41.8468 13.0235 44.7174 10.4982 48.8248 10.4982H54.7706C55.4519 10.4982 56.076 10.1172 56.3866 9.51098C58.5646 5.26089 63.1357 3.70125 66.7026 4.04283C70.0959 4.36752 72.6249 6.29127 73.4676 9.19004C73.6928 9.96517 74.4032 10.4982 75.2112 10.4982H81.6046C85.8143 10.4982 88.4588 13.0432 89.1345 15.407C89.797 17.7259 88.6878 19.9837 86.0902 21.6015C85.5572 21.9328 85.2344 22.5155 85.2344 23.1424V34.0196C83.2778 33.6086 81.3156 33.2595 79.3534 32.9657C79.2783 32.9479 79.2013 32.932 79.1225 32.9235C79.0981 32.9207 79.0737 32.9207 79.0493 32.9188C75.991 32.4712 72.9337 32.1634 69.8998 32.0067C68.9032 31.9541 68.0445 32.7246 67.9929 33.7259C67.9413 34.7271 68.7117 35.5811 69.713 35.6327C72.1416 35.7575 74.5871 35.9874 77.0364 36.3074C77.1237 40.5697 79.3637 43.1297 81.3644 44.5702C82.7495 45.5668 84.1834 46.1524 85.2344 46.4855V48.2385C85.2344 53.0018 82.7964 57.7071 78.3699 61.487C74.4361 64.8447 69.286 67.0818 64.9318 67.3249C64.8257 67.3305 64.716 67.3343 64.6024 67.3343C62.0555 67.3333 57.949 65.8525 54.0809 63.179C54.0218 63.132 53.9589 63.0898 53.8951 63.0504C52.7924 62.2762 51.7123 61.4044 50.6951 60.4416C48.0844 57.9708 44.9717 54.0106 44.9717 49.1806ZM64.6033 70.965C64.7826 70.965 64.9599 70.9594 65.1326 70.95C68.8515 70.7426 72.8989 69.3913 76.5794 67.2066C77.1143 67.993 77.7749 68.7766 78.6064 69.4542C75.6429 72.8878 69.362 74.2541 63.9455 74.0468C58.316 73.8309 53.5816 72.0339 51.5171 69.4448C52.3561 68.7578 53.0195 67.9639 53.5573 67.1682C57.3794 69.5151 61.455 70.965 64.6033 70.965ZM45.79 71.4877C46.3193 71.4689 46.8166 71.4164 47.2877 71.3366V79.3826H42.635V71.7533C43.6354 71.6303 44.6855 71.5402 45.79 71.4877ZM39.0043 72.413V79.3826H29.1866C30.9414 75.9217 34.1893 73.6132 39.0043 72.413ZM6.1363 88.0385C4.75495 88.0385 3.63073 86.9134 3.63073 85.5292C3.63073 84.1413 4.75495 83.0124 6.1363 83.0124H9.11389C8.90275 84.0718 8.94216 85.3096 9.24058 86.66V86.6628C9.3438 87.1273 9.46111 87.5853 9.58498 88.0385H6.1363ZM26.3516 102.194C19.3999 99.3474 14.4647 93.4185 12.7859 85.8764C12.4781 84.4866 12.6226 83.4994 12.8863 83.17C12.9248 83.1231 13.013 83.0133 13.41 83.0133H26.5299H26.5365H26.5421H57.6431C58.0429 83.0133 58.132 83.1231 58.1696 83.17C58.4323 83.4975 58.575 84.4838 58.2681 85.8755C56.6465 93.2008 51.6551 99.2761 44.8816 102.194H26.3516ZM59.9244 105.197C59.0489 103.419 57.2199 102.194 55.1103 102.194H51.9788C55.5345 99.4525 58.361 95.8321 60.1796 91.6693H64.9168C67.8803 91.6693 70.3596 89.5625 70.9348 86.7679H89.4338C90.6453 86.7679 90.9578 88.4205 90.9906 88.6175L93.8547 105.197H59.9244ZM117.872 98.1312V105.223C117.872 108.408 115.284 111 112.102 111H108.784C107.432 111 106.332 109.895 106.332 108.537V94.8101C106.332 94.0603 106.67 93.3894 107.2 92.9389C107.217 92.9258 107.233 92.9127 107.249 92.8986C107.669 92.5589 108.203 92.3543 108.783 92.3543H112.102C115.284 92.3543 117.872 94.9462 117.872 98.1312ZM104.835 56.2506V40.4421C104.835 38.5578 106.367 37.0244 108.249 37.0244H115.956C117.838 37.0244 119.369 38.5578 119.369 40.4421V56.2506C119.369 58.1359 117.838 59.6693 115.956 59.6693H108.249C106.367 59.6693 104.835 58.1359 104.835 56.2506Z" fill="#0086B8"/>
</svg>
